<?xml version="1.0" standalone="no"?>
<!DOCTYPE svg PUBLIC "-//W3C//DTD SVG 20010904//EN"
 "http://www.w3.org/TR/2001/REC-SVG-20010904/DTD/svg10.dtd">
<svg version="1.0" xmlns="http://www.w3.org/2000/svg"
 width="16.000000pt" height="16.000000pt" viewBox="0 0 16.000000 16.000000"
 preserveAspectRatio="xMidYMid meet">
<metadata>
Created by potrace 1.11, written by Peter Selinger 2001-2013
</metadata>
<g transform="translate(0.000000,16.000000) scale(0.006154,-0.006154)"
fill="#000000" stroke="none">
<path d="M1050 1899 c-41 -16 -124 -45 -185 -66 -60 -20 -171 -57 -245 -83
-74 -27 -211 -74 -305 -105 -193 -65 -205 -70 -205 -90 0 -9 69 -66 153 -128
l152 -114 28 -204 c15 -112 27 -212 27 -221 0 -36 29 -16 124 83 86 89 99 99
114 87 62 -48 172 -153 172 -164 0 -8 10 -14 24 -14 20 0 26 7 31 33 3 17 20
92 38 165 l31 132 126 0 127 0 12 -57 c55 -250 62 -273 88 -273 22 0 24 3 18
27 -9 36 -126 526 -177 738 -22 94 -44 174 -48 179 -5 5 -6 31 -3 57 7 58 7
58 -97 18z m-60 -87 c-13 -9 -56 -43 -95 -74 -120 -98 -226 -184 -340 -277
-109 -90 -131 -101 -152 -80 -6 6 -20 16 -31 23 -32 18 -184 138 -180 142 6 5
216 80 408 145 96 32 227 77 290 98 130 45 134 46 100 23z m95 -54 c-10 -53
-80 -355 -167 -721 l-20 -87 -57 50 c-31 27 -101 92 -156 143 l-100 94 60 69
c33 38 62 71 65 74 3 3 34 39 70 80 36 41 74 84 85 96 11 11 34 36 50 56 63
74 180 208 181 208 1 0 -4 -28 -11 -62z m64 -70 c6 -35 30 -138 52 -230 21
-92 39 -174 39 -183 0 -12 -18 -15 -110 -15 -60 0 -110 4 -110 9 0 5 15 74 34
153 18 78 42 185 52 236 10 50 21 92 24 92 3 0 12 -28 19 -62z m-335 -125
c-70 -82 -132 -153 -138 -158 -6 -6 -36 -39 -66 -75 -30 -36 -58 -68 -63 -71
-4 -3 -18 -59 -31 -125 -26 -134 -25 -135 -50 66 -11 87 -12 118 -3 129 6 7
45 40 87 72 83 66 162 128 296 236 49 40 90 73 92 73 2 0 -54 -66 -124 -147z
m-186 -428 l33 -31 -66 -68 c-36 -38 -67 -67 -69 -65 -2 2 5 52 17 111 23 119
17 115 85 53z"/>
<path d="M1600 1834 c-49 -21 -70 -42 -96 -99 -33 -71 -33 -171 1 -240 30 -63
38 -72 100 -114 191 -130 215 -160 215 -268 0 -202 -197 -257 -326 -91 l-22
28 -16 -24 c-15 -24 -14 -26 35 -80 114 -125 269 -113 345 27 25 47 28 61 28
147 -1 145 -24 180 -195 293 -114 75 -144 120 -142 207 2 100 40 154 116 167
53 8 83 -3 134 -50 43 -39 46 -41 59 -22 12 16 11 22 -10 49 -31 41 -112 86
-156 85 -19 0 -51 -7 -70 -15z"/>
<path d="M2195 1748 c-16 -35 -54 -117 -85 -183 -155 -323 -180 -379 -180
-397 0 -17 11 -18 145 -18 l145 0 0 -135 c0 -128 1 -135 20 -135 19 0 20 7 20
135 l0 135 44 0 c41 0 44 2 48 30 5 30 4 30 -44 30 l-48 0 0 300 c0 286 -1
300 -19 300 -13 0 -26 -18 -46 -62z m25 -298 l0 -240 -115 0 c-63 0 -115 2
-115 5 0 2 38 82 83 177 46 95 96 201 112 236 15 34 29 62 31 62 2 0 4 -108 4
-240z"/>
</g>
</svg>
